<?xml version="1.0" encoding="utf-8"?>
<!-- Generator: Adobe Illustrator 19.0.0, SVG Export Plug-In . SVG Version: 6.00 Build 0)  -->
<svg version="1.1" id="Layer_1" xmlns="http://www.w3.org/2000/svg" xmlns:xlink="http://www.w3.org/1999/xlink" x="0px" y="0px"
	 viewBox="0 0 612 792" style="enable-background:new 0 0 612 792;" xml:space="preserve">
<style type="text/css">
	.st0{fill:#231F20;}
	.st1{fill:none;stroke:#231F20;stroke-width:0.1417;stroke-miterlimit:10;}
</style>
<path id="XMLID_8_" class="st0" d="M572,445.6c-6.2,1.6-11.7,5-16.1,9.6c-6.2,6.6-10.1,15.6-10.1,25.7c0,20.1-15.5,36.3-34.5,36.3
	H100.7c-9.5,0-18.2-4.1-24.4-10.7c-6.2-6.6-10.1-15.6-10.1-25.7c0-17.1-11.1-31.4-26.2-35.3H572z"/>
<path id="XMLID_2_" class="st1" d="M572,166.6c-6.2,1.6-11.7,5-16.1,9.6c-6.2,6.6-10.1,15.6-10.1,25.7c0,20.1-15.5,36.3-34.5,36.3
	H100.7c-9.5,0-18.2-4.1-24.4-10.7c-6.2-6.6-10.1-15.6-10.1-25.7c0-17.1-11.1-31.4-26.2-35.3H572z"/>
</svg>
