<svg xmlns="http://www.w3.org/2000/svg" viewBox="0 0 590 1000">
    <g>
        <path id="rgtFoot" d="M104 782c-2-2-3-5-3-1 1 5 5 12 8 16 5 9 28 29 18 33s-22 4-32-1c-28-13-18-27-19-53v-2c-1-5-6-2-7 0l1 18c0 21-4 23 15 37 12 8 23 10 37 6 26-7 1-23-7-35l-11-18zm0 0" />
        <path id="inbetweenMat" d="M116 800c9-3 25-9 35-8l-1-6-16 5-21 5 3 4zm0 0" />
        <path id="lftFoot" d="M161 799l16 4c20 7 27 16 50 6l7-4 3-4-1-5c-10-15-32-10-43-32-8-15-2 11 16 20 11 5 43 16 9 23-18 5-20-2-36-8-6-2-25-5-24-13 0-8 4-18 5-26l-1-1-7 1-1 1v6c-1 12-8 25 7 32zm0 0" />
        <path id="cap" d="M206 38c1 1 6 5 7 4l-8-7c-16-8-38-4-58-4-10 2-12-9-9-16 6-12 71-19 71 6v2c7-16-17-22-30-23-21-1-49 4-65 18-2 1-2 1-1 7l5 22 1 3c19-15 67-22 87-12zm0 0" />
        <path id="face" d="M135 44l-1-1c-2 1-16 9-17 12l-1 2c-4 31 39 94 70 73 10-7 24-45 24-55 0-9-1-10 1-20 0-3 0-15-1-13l-2 12-1 21c-1 9-12 39-20 46-22 21-49-22-53-43-1-10-2-25 1-34zm0 0" />
        <path id="lftNeck" d="M122 94v2c0 26-8 51 30 75 0 1 2 1 0-1-14-15-26-34-20-56 1-4-1-6-2-8l-8-12zm0 0" />
        <path id="lftArm" d="M178 148c-2 8-13 27-7 20l9-10c6-8 6-11 18-9 11 2 26 9 35 16 23 19 26 79 28 107 2 41 4 95 1 136-2 23-11 11-18 17-1 1 7 1 8 1 2 1 2 2 2 4 1 14 11 44 3 56-6 10-18 3-15 6 5 5 15 2 19-3 6-8 1-34 0-46l-1-19c13-6 8-125 7-144-1-25-4-48-7-66-7-50-15-55-63-75-16-7-15-6-19 9zm0 0" />
        <path id="rgtArm" d="M117 134c-9-3-55 15-68 23-24 15-29 41-32 68a883 883 0 0 0 7 212c1-1-3-33-3-46-2-22-3-52-3-80 1-40-1-126 39-148 17-10 40-15 59-15l5-1c2-2-2-12-4-13zm0 0" />
        <path id="rgtInsideArm" d="M93 207c9-27-5 2-7 11-19 81-25 113-19 196l2 20c-1 2-2 2-5 2-6 0-45 4-42 6l48-1c3 0 3 0 3-7-2-55-3-104 8-159 4-22 6-47 12-68zm0 0" />
        <path id="lftDress" d="M226 255c8 145 3 271 0 416v62c3 0 15-243 16-269l-2-91c0-28-13-172-16-172l2 54zm0 0" />
        <path id="rgtHand" d="M43 443c-1-1-6-1-7 1l-1 2c-6 21-11 90 18 58l5-6c3-6 2-10 7-6 16 13-7-64-3-41 12 62-1 23-5 36-3 7-8 22-15 20-16-3 2-63 1-64zm0 0" />
        <path id="lftMat" d="M233 768l-21 6c-10 6 33-5 40-5 11-1 21 4 31 9 87 40 185 81 277 109-66 22-133 49-199 73-36 13-84 33-78 32 44-11 236-83 295-106 28-11 1-6-12-2l-88-33c-68-24-128-50-193-79-24-11-28-11-52-4zm0 0" />
        <path id="rgtMat" d="M67 807c-8 1-64 12-67 14-7 7 212 136 234 151 12 9 30 23 44 28 2 0 2 0 1-1l-18-13c-77-59-165-96-238-153-11-9-10-11 4-14l40-7v-5zm0 0" />
        <path id="rgtDress" d="M63 771c55-9 111-17 167-22l7-1c-27-5-114 5-145 9-37 3-45 2-46-36-1-34-4-82-1-202-12-32-14 183-11 243 1 11 3 12 6 12l23-3zm0 0" />
    </g>
</svg>