<?xml version="1.0" encoding="utf-8"?>
<!-- Generator: Adobe Illustrator 19.0.0, SVG Export Plug-In . SVG Version: 6.00 Build 0)  -->
<svg version="1.1" id="Layer_1" xmlns="http://www.w3.org/2000/svg" xmlns:xlink="http://www.w3.org/1999/xlink" x="0px" y="0px"
	 viewBox="0 0 1000 1000" style="enable-background:new 0 0 1000 1000;" xml:space="preserve">
<style type="text/css">
	.st0{fill:#0D324D;}
	.st1{font-family:'TrajanPro-Bold';}
	.st2{font-size:92.4438px;}
	.st3{letter-spacing:2;}
</style>
<g id="XMLID_80_">
	<text id="XMLID_106_" transform="matrix(1 0 0 1 473.9709 436.9059)"><tspan x="0" y="0" class="st0 st1 st2 st3">Come</tspan><tspan x="0" y="111" class="st0 st1 st2 st3">to</tspan><tspan x="0" y="222" class="st0 st1 st2 st3">Salah</tspan></text>
	<g id="XMLID_1_">
		<path id="XMLID_2_" class="st0" d="M327.8,323.4l2.7-1v4.8c0,0.4,0.2,0.7,0.6,1c0.7,0.2,1.2,0.2,1.6,0c0.5-0.3,0.9-0.7,1.2-1.1
			c0.3-0.4,0.4-0.8,0.4-1.2v-4.8l2.8-0.9v4.7c0,1,0.6,1.4,1.8,1.1c0.5-0.2,1-0.6,1.3-1c0.4-0.4,0.5-0.9,0.5-1.3v-4.7l2.7-1.1v5.4
			c0,1-0.3,2-0.8,2.9c-0.5,0.9-1.2,1.7-1.9,2.3c-0.8,0.6-1.6,1-2.5,1.1c-0.9,0.1-1.8-0.1-2.6-0.6c-0.3,0.7-0.9,1.3-1.7,1.7
			c-0.8,0.4-1.7,0.7-2.5,0.8c-0.9,0.1-1.6-0.1-2.3-0.5c-0.7-0.4-1.1-1.2-1.1-2.2V323.4z"/>
		<path id="XMLID_4_" class="st0" d="M345.5,325.7v0.3l-15,5.2c-0.3,0.1-0.6,0.2-0.8,0.2c-0.2,0-0.5,0-0.7,0c-0.5,0-0.9,0-1-0.1
			l-2.2-0.9v-0.3l15-5.2c0.6-0.2,1.2-0.3,1.7-0.3c0.6,0,0.9,0,1,0.1L345.5,325.7z"/>
		<path id="XMLID_6_" class="st0" d="M355,431c0,2.5-0.6,4.8-1.9,6.9c-1.3,2.1-3,3.8-5.2,5.3c-2.2,1.5-4.7,2.6-7.7,3.4
			c-2.9,0.8-6,1.2-9.3,1.2c-3.4,0-6.5-0.4-9.4-1.2c-2.9-0.8-5.5-1.9-7.6-3.4c-2.2-1.5-3.8-3.2-5.1-5.3c-1.2-2.1-1.8-4.3-1.8-6.9
			c0-1.9,0.4-3.6,1.1-5.1c0.8-1.5,1.8-2.8,3-4c1.2-1.2,2.6-2.3,4.1-3.3c1.5-1,3-1.9,4.6-2.8c1.3-0.7,2.6-1.5,3.9-2.2
			c1.3-0.8,2.4-1.6,3.4-2.6c1-0.9,1.8-1.9,2.4-3c0.6-1.1,0.9-2.3,0.9-3.6v-8.5h8.1v8.5c0,2.1-0.4,4.1-1.3,5.8
			c-0.9,1.7-2,3.2-3.3,4.6c-1.3,1.3-2.8,2.6-4.4,3.6c-1.6,1.1-3.2,2.1-4.8,3c-1.2,0.7-2.4,1.4-3.5,2.1c-1.2,0.7-2.2,1.5-3.1,2.2
			c-0.9,0.8-1.6,1.6-2.2,2.5c-0.6,0.9-0.8,1.8-0.8,2.9c0,1.5,0.4,2.8,1.2,4c0.8,1.2,2,2.2,3.4,3c1.4,0.8,3.1,1.4,5.1,1.9
			c2,0.4,4,0.7,6.2,0.7c2.2,0,4.3-0.2,6.2-0.7c2-0.4,3.6-1.1,5.1-1.9c1.4-0.8,2.6-1.8,3.4-3c0.8-1.2,1.2-2.5,1.2-4
			c0-1.4-0.5-2.6-1.6-3.8c-1.1-1.1-2.5-2.1-4.2-3c-1.7-0.9-3.6-1.6-5.8-2.1c-2.1-0.6-4.2-0.9-6.3-1.1c1.5-1,3-2.1,4.3-3.2
			c1.4-1.1,2.5-2.1,3.4-3c5.5,1,9.9,2.9,13.2,5.7C353.3,423.3,355,426.8,355,431z M359,410c0,1.4,0.5,2.5,1.4,3.4
			c1,0.9,2.2,1.3,3.7,1.3h6.4c1.9,0,3.2,0.4,3.8,1.2c0.6,0.8,0.9,1.6,0.9,2.5c0,1-0.3,1.8-0.9,2.6c-0.6,0.7-1.9,1.1-3.8,1.1h-6.4
			c-4.2,0-7.5-1.1-9.8-3.4c-2.3-2.2-3.5-5.1-3.5-8.7v-5.7c0-1.4-0.3-2.8-0.9-4.1c-0.6-1.3-1.4-2.4-2.5-3.4c-1.1-1-2.3-1.7-3.7-2.2
			c-1.4-0.5-2.9-0.8-4.5-0.8h-19.7v6.8c0,1,0.1,1.9,0.2,2.7c0.1,0.8,0.4,1.6,0.8,2.2c0.4,0.7,1.1,1.4,1.9,2c0.8,0.7,1.9,1.3,3.2,2.1
			c-0.9,0.8-2.1,1.6-3.4,2.4c-1.3,0.8-2.6,1.5-3.9,2.1c-1.4-0.9-2.5-1.8-3.4-2.7s-1.6-1.9-2.1-3s-0.8-2.3-1-3.5
			c-0.2-1.3-0.3-2.8-0.3-4.4v-14.1h27.6c2.7,0,5.3,0.5,7.7,1.4c2.4,0.9,4.5,2.2,6.3,3.8s3.2,3.5,4.2,5.7c1,2.2,1.5,4.5,1.5,6.9V410z
			 M329,458.5c0,1-0.4,1.9-1.2,2.6c-0.8,0.7-1.8,1.1-2.9,1.1c-1.1,0-2.1-0.4-2.9-1.1c-0.8-0.7-1.2-1.6-1.2-2.6c0-1,0.4-1.9,1.2-2.6
			c0.8-0.7,1.8-1.1,2.9-1.1c1.1,0,2.1,0.4,2.9,1.1C328.6,456.6,329,457.5,329,458.5z M330.3,384.5v-7.3c0-0.7,0-1.5-0.1-2.3
			c-0.1-0.8-0.3-1.6-0.7-2.3c-0.4-0.7-1-1.3-1.7-1.7c-0.7-0.4-1.7-0.7-3-0.7c0.5-0.9,1-1.6,1.6-2.1c0.5-0.4,1.1-0.8,1.8-1.1
			c0.7-0.3,1.8-0.5,3.2-0.6c0.1-1,0.5-1.9,1.1-2.7c0.6-0.8,1.3-1.5,1.9-2.1c0.2-0.2,0.5-0.4,0.8-0.6c0.3-0.2,0.7-0.5,1.1-0.8
			c0.4-0.3,0.7-0.5,1-0.7c0.3-0.2,0.5-0.3,0.5-0.4h0.6v25.4H330.3z M338.8,458.5c0,1-0.4,1.9-1.2,2.6c-0.8,0.7-1.8,1.1-2.9,1.1
			c-1.1,0-2.1-0.4-2.9-1.1c-0.8-0.7-1.2-1.6-1.2-2.6c0-1,0.4-1.9,1.2-2.6c0.8-0.7,1.8-1.1,2.9-1.1c1.1,0,2.1,0.4,2.9,1.1
			C338.3,456.6,338.8,457.5,338.8,458.5z"/>
		<path id="XMLID_14_" class="st0" d="M402.7,333.8v0.3l-15,5.2c-0.3,0.1-0.6,0.2-0.8,0.2c-0.2,0-0.5,0-0.7,0c-0.5,0-0.9,0-1-0.1
			l-2.2-0.9v-0.3l15-5.2c0.6-0.2,1.2-0.3,1.7-0.3c0.6,0,0.9,0,1,0.1L402.7,333.8z"/>
		<path id="XMLID_16_" class="st0" d="M421.8,414.8c0,1-0.2,1.9-0.7,2.8c-0.5,0.9-1,1.7-1.7,2.3c-0.7,0.7-1.5,1.2-2.3,1.6
			c-0.8,0.4-1.6,0.6-2.4,0.6h-50.3c-1.9,0-3.2-0.4-4.1-1.1c-0.9-0.7-1.3-1.6-1.3-2.6c0-0.9,0.4-1.7,1.3-2.5c0.9-0.8,2.3-1.2,4.1-1.2
			h19.6c-4.2-2.4-7.6-6-10.2-10.6c-2.6-4.6-3.9-10.6-3.9-17.8h-0.1v-17.3h0.6c0.1,0.1,0.2,0.3,0.5,0.4c0.3,0.2,0.6,0.4,1,0.7
			s0.8,0.5,1.1,0.8c0.3,0.2,0.6,0.4,0.8,0.6c0.7,0.6,1.3,1.3,1.9,2.1c0.6,0.8,1,1.7,1.1,2.7c1.4,0.1,2.5,0.3,3.2,0.6
			c0.7,0.3,1.3,0.7,1.8,1.1c0.6,0.5,1.1,1.3,1.6,2.1c-1.3,0-2.3,0.2-3,0.7c-0.7,0.4-1.3,1-1.7,1.7c-0.4,0.7-0.6,1.4-0.7,2.3
			c-0.1,0.8-0.1,1.6-0.1,2.3v0.1c0,5.1,1.2,9.4,3.7,12.9c2.5,3.5,5.7,6.3,9.8,8.5c4.1,2.1,8.7,3.7,14,4.7
			C410.6,414.3,416.1,414.8,421.8,414.8z"/>
		<path id="XMLID_18_" class="st0" d="M305.9,545c0,2.5-0.6,4.8-1.9,6.9c-1.3,2.1-3,3.8-5.2,5.3c-2.2,1.5-4.7,2.6-7.7,3.4
			c-2.9,0.8-6,1.2-9.3,1.2c-3.4,0-6.5-0.4-9.4-1.2c-2.9-0.8-5.5-1.9-7.6-3.4c-2.2-1.5-3.8-3.2-5.1-5.3c-1.2-2.1-1.8-4.3-1.8-6.9
			c0-1.9,0.4-3.6,1.1-5.1c0.8-1.5,1.8-2.8,3-4c1.2-1.2,2.6-2.3,4.1-3.3c1.5-1,3-1.9,4.6-2.8c1.3-0.7,2.6-1.5,3.9-2.2
			c1.3-0.8,2.4-1.6,3.4-2.6c1-0.9,1.8-1.9,2.4-3c0.6-1.1,0.9-2.3,0.9-3.6v-8.5h8.1v8.5c0,2.1-0.4,4.1-1.3,5.8
			c-0.9,1.7-2,3.2-3.3,4.6c-1.3,1.3-2.8,2.6-4.4,3.6c-1.6,1.1-3.2,2.1-4.8,3c-1.2,0.7-2.4,1.4-3.5,2.1c-1.2,0.7-2.2,1.5-3.1,2.2
			c-0.9,0.8-1.6,1.6-2.2,2.5c-0.6,0.9-0.8,1.8-0.8,2.9c0,1.5,0.4,2.8,1.2,4c0.8,1.2,2,2.2,3.4,3c1.4,0.8,3.1,1.4,5.1,1.9
			c2,0.4,4,0.7,6.2,0.7c2.2,0,4.3-0.2,6.2-0.7c2-0.4,3.6-1.1,5.1-1.9c1.4-0.8,2.6-1.8,3.4-3c0.8-1.2,1.2-2.5,1.2-4
			c0-1.4-0.5-2.6-1.6-3.8c-1.1-1.1-2.5-2.1-4.2-3c-1.7-0.9-3.6-1.6-5.8-2.1c-2.1-0.6-4.2-0.9-6.3-1.1c1.5-1,3-2.1,4.3-3.2
			c1.4-1.1,2.5-2.1,3.4-3c5.5,1,9.9,2.9,13.2,5.7C304.2,537.3,305.9,540.8,305.9,545z M309.9,524c0,1.4,0.5,2.5,1.4,3.4
			c1,0.9,2.2,1.3,3.7,1.3h6.4c1.9,0,3.2,0.4,3.8,1.2c0.6,0.8,0.9,1.6,0.9,2.5c0,1-0.3,1.8-0.9,2.6c-0.6,0.7-1.9,1.1-3.8,1.1h-6.4
			c-4.2,0-7.5-1.1-9.8-3.4c-2.3-2.2-3.5-5.1-3.5-8.7v-5.7c0-1.4-0.3-2.8-0.9-4.1c-0.6-1.3-1.4-2.4-2.5-3.4c-1.1-1-2.3-1.7-3.7-2.2
			c-1.4-0.5-2.9-0.8-4.5-0.8h-19.7v6.8c0,1,0.1,1.9,0.2,2.7c0.1,0.8,0.4,1.6,0.8,2.2c0.4,0.7,1.1,1.4,1.9,2c0.8,0.7,1.9,1.3,3.2,2.1
			c-0.9,0.8-2.1,1.6-3.4,2.4c-1.3,0.8-2.6,1.5-3.9,2.1c-1.4-0.9-2.5-1.8-3.4-2.7s-1.6-1.9-2.1-3c-0.5-1.1-0.8-2.3-1-3.5
			c-0.2-1.3-0.3-2.8-0.3-4.4v-14.1h27.6c2.7,0,5.3,0.5,7.7,1.4c2.4,0.9,4.5,2.2,6.3,3.8c1.8,1.6,3.2,3.5,4.2,5.7
			c1,2.2,1.5,4.5,1.5,6.9V524z M281.2,498.5v-7.3c0-0.7,0-1.5-0.1-2.3c-0.1-0.8-0.3-1.6-0.7-2.3c-0.4-0.7-1-1.3-1.7-1.7
			c-0.7-0.4-1.7-0.7-3-0.7c0.5-0.9,1-1.6,1.6-2.1c0.5-0.4,1.1-0.8,1.8-1.1c0.7-0.3,1.8-0.5,3.2-0.6c0.1-1,0.5-1.9,1.1-2.7
			c0.6-0.8,1.3-1.5,1.9-2.1c0.2-0.2,0.5-0.4,0.8-0.6c0.3-0.2,0.7-0.5,1.1-0.8c0.4-0.3,0.7-0.5,1-0.7c0.3-0.2,0.5-0.3,0.5-0.4h0.6
			v25.4H281.2z"/>
		<path id="XMLID_22_" class="st0" d="M334.5,434v0.3l-15,5.2c-0.3,0.1-0.6,0.2-0.8,0.2c-0.2,0-0.5,0-0.7,0c-0.5,0-0.9,0-1-0.1
			l-2.2-0.9v-0.3l15-5.2c0.6-0.2,1.2-0.3,1.7-0.3c0.6,0,0.9,0,1,0.1L334.5,434z"/>
		<path id="XMLID_24_" class="st0" d="M321.5,528.8v-43.3c0-0.7,0-1.5-0.1-2.3c-0.1-0.8-0.3-1.6-0.7-2.3c-0.4-0.7-1-1.3-1.7-1.7
			c-0.7-0.4-1.7-0.7-3-0.7c0.5-0.9,1-1.6,1.6-2.1c0.5-0.4,1.1-0.8,1.8-1.1c0.7-0.3,1.8-0.5,3.2-0.6c0.1-1,0.5-1.9,1.1-2.7
			c0.6-0.8,1.3-1.5,1.9-2.1c0.2-0.2,0.5-0.4,0.8-0.6c0.3-0.2,0.7-0.5,1.1-0.8s0.7-0.5,1-0.7c0.3-0.2,0.5-0.3,0.5-0.4h0.6v61.4h10.6
			c1.9,0,3.3,0.4,4.1,1.2c0.8,0.8,1.2,1.6,1.2,2.5c0,1-0.4,1.8-1.2,2.6c-0.8,0.7-2.2,1.1-4.1,1.1h-25c-1.9,0-3.2-0.4-4-1.1
			c-0.7-0.7-1.1-1.6-1.1-2.6c0-0.9,0.4-1.7,1.1-2.5c0.7-0.8,2.1-1.2,4-1.2H321.5z"/>
		<path id="XMLID_26_" class="st0" d="M372.7,448v0.3l-15,5.2c-0.3,0.1-0.6,0.2-0.8,0.2c-0.2,0-0.5,0-0.7,0c-0.5,0-0.9,0-1-0.1
			l-2.2-0.9v-0.3l15-5.2c0.6-0.2,1.2-0.3,1.7-0.3c0.6,0,0.9,0,1,0.1L372.7,448z"/>
		<path id="XMLID_28_" class="st0" d="M349.1,507.8c0.1,7.1,2,12.4,5.5,15.8c3.5,3.4,9.3,5.1,17.4,5.1h19.5
			c-1.7,4.9-4.7,7.3-8.9,7.3h-48.2c-1.9,0-3.2-0.4-3.9-1.1c-0.8-0.7-1.1-1.6-1.1-2.6c0-0.9,0.4-1.7,1.1-2.5c0.8-0.8,2.1-1.2,3.9-1.2
			h13.1c-1.3-1.4-2.4-2.9-3.3-4.5c-1-1.6-1.8-3.5-2.4-5.7c-0.6-2.2-1.1-4.8-1.4-7.7c-0.3-2.9-0.5-6.4-0.5-10.4H371
			c-0.1-0.7-0.2-1.3-0.3-2c-0.2-0.7-0.4-1.3-0.8-1.8s-0.9-1-1.6-1.3s-1.6-0.5-2.6-0.5c0.5-0.9,1-1.6,1.6-2.1
			c0.5-0.4,1.1-0.8,1.8-1.1c0.7-0.3,1.8-0.5,3.2-0.6c0.1-1,0.5-1.9,1.1-2.7c0.6-0.8,1.3-1.5,1.9-2.1c0.2-0.2,0.5-0.4,0.8-0.6
			c0.3-0.2,0.7-0.5,1.1-0.8s0.7-0.5,1-0.7c0.3-0.2,0.5-0.3,0.5-0.4h0.6v24.3H349.1z"/>
		<path id="XMLID_30_" class="st0" d="M223.6,612c0,1-0.4,1.9-1.2,2.6c-0.8,0.7-1.8,1.1-2.9,1.1c-1.1,0-2.1-0.4-2.9-1.1
			c-0.8-0.7-1.2-1.6-1.2-2.6c0-1,0.4-1.9,1.2-2.6c0.8-0.7,1.8-1.1,2.9-1.1c1.1,0,2.1,0.4,2.9,1.1C223.1,610.1,223.6,611,223.6,612z
			 M217.9,650.2v-6.4c0-4.3,0.6-7.9,1.9-10.9c1.3-3,3-5.4,5.1-7.4c2.1-2,4.6-3.5,7.3-4.7c2.7-1.1,5.6-2.1,8.5-2.8v7.5
			c-4.9,1.3-8.5,3.2-10.9,5.8c-2.4,2.6-3.6,6.4-3.8,11.5h16.9v-27c0-0.7,0-1.5-0.1-2.3c-0.1-0.8-0.3-1.6-0.7-2.3s-1-1.3-1.7-1.7
			c-0.7-0.4-1.7-0.7-3-0.7c0.5-0.9,1-1.6,1.6-2.1c0.5-0.4,1.1-0.8,1.8-1.1c0.7-0.3,1.8-0.5,3.2-0.6c0.1-1,0.5-1.9,1.1-2.7
			c0.6-0.8,1.3-1.5,1.9-2.1c0.2-0.2,0.5-0.4,0.8-0.6c0.3-0.2,0.7-0.5,1.1-0.8c0.4-0.3,0.7-0.5,1-0.7c0.3-0.2,0.5-0.3,0.5-0.4h0.6
			v52.5H217.9z M233.3,612c0,1-0.4,1.9-1.2,2.6c-0.8,0.7-1.8,1.1-2.9,1.1c-1.1,0-2.1-0.4-2.9-1.1c-0.8-0.7-1.2-1.6-1.2-2.6
			c0-1,0.4-1.9,1.2-2.6c0.8-0.7,1.8-1.1,2.9-1.1c1.1,0,2.1,0.4,2.9,1.1C232.9,610.1,233.3,611,233.3,612z M253.3,615.1
			c2.1-0.1,4-0.6,5.5-1.5c1.6-0.9,2.9-1.9,4-3.1l1.4,1.3c-0.3,2.9-1.5,5.2-3.6,7c-2.1,1.8-4.6,3.2-7.4,4.1V615.1z"/>
		<path id="XMLID_35_" class="st0" d="M304.3,548.1v0.3l-15,5.2c-0.3,0.1-0.6,0.2-0.8,0.2c-0.2,0-0.5,0-0.7,0c-0.5,0-0.9,0-1-0.1
			l-2.2-0.9v-0.3l15-5.2c0.6-0.2,1.2-0.3,1.7-0.3c0.6,0,0.9,0,1,0.1L304.3,548.1z"/>
		<path id="XMLID_37_" class="st0" d="M263.4,633.9v-34.5c0-0.7,0-1.5-0.1-2.3c-0.1-0.8-0.3-1.6-0.7-2.3c-0.4-0.7-1-1.3-1.7-1.7
			c-0.7-0.4-1.7-0.7-3-0.7c0.5-1,1.1-1.7,1.6-2.1c0.5-0.4,1.1-0.8,1.8-1.1c0.7-0.3,1.8-0.5,3.2-0.6c0.1-1,0.5-1.9,1.1-2.7
			c0.6-0.8,1.3-1.5,1.9-2.1c0.2-0.2,0.5-0.4,0.8-0.6c0.4-0.2,0.7-0.5,1.1-0.7c0.4-0.2,0.7-0.5,1-0.7c0.3-0.2,0.5-0.4,0.5-0.5h0.6
			v52.7c0,1.6,0.3,2.9,0.8,4.1c0.5,1.2,1.7,2.3,3.4,3.4c-1.5,0.4-2.9,0.9-4.5,1.7c-1.5,0.7-2.8,1.4-3.7,2.1c-1.5-1.4-2.6-3.1-3.2-5
			C263.7,638.2,263.4,636.2,263.4,633.9z M291.3,633.9v-52.7h0.6c0.1,0.1,0.2,0.3,0.5,0.5c0.3,0.2,0.6,0.4,1,0.7
			c0.4,0.2,0.7,0.5,1.1,0.7c0.4,0.2,0.6,0.4,0.8,0.6c0.7,0.6,1.3,1.3,1.9,2.1c0.6,0.8,1,1.7,1.1,2.7c1.4,0.1,2.5,0.3,3.2,0.6
			c0.7,0.3,1.3,0.7,1.8,1.1c0.5,0.5,1.1,1.2,1.6,2.1c-1.3,0-2.3,0.2-3,0.7c-0.7,0.4-1.3,1-1.7,1.7c-0.4,0.7-0.6,1.4-0.7,2.3
			c-0.1,0.8-0.1,1.6-0.1,2.3v34.5c0,1.7,0.3,3.2,0.8,4.3c0.5,1.1,1.2,2,1.9,2.7c0.8,0.7,1.6,1.2,2.5,1.4s1.7,0.4,2.4,0.4h6.4
			c1.6,0,2.7,0.3,3.3,1c0.6,0.7,0.9,1.5,0.9,2.6c0,1-0.3,1.9-0.9,2.6c-0.6,0.7-1.7,1.1-3.3,1.1h-6.4c-2.3,0-4.6-0.4-6.8-1.3
			c-2.2-0.8-4-2.3-5.3-4.4c-1.7,1.6-3.6,2.9-5.8,4c-2.2,1.1-4.8,1.7-7.8,1.7c-1.4,0-2.7,0.2-3.9,0.7c-1.2,0.5-2.2,1.1-3.1,2
			c-0.9,0.8-1.6,1.8-2.1,2.9c-0.5,1.1-0.7,2.2-0.7,3.4c0,1.1,0.3,2.2,1,3.1c0.7,0.9,1.6,1.8,2.6,2.5c1,0.7,2.1,1.4,3.2,2
			c1.1,0.6,2.1,1,3,1.4c0.9-0.4,1.9-0.8,3-1.4c1.2-0.6,2.3-1.2,3.3-2c1-0.7,1.9-1.6,2.6-2.5c0.7-0.9,1-2,1-3.1
			c0-1.5-0.3-2.8-0.9-3.9c-0.6-1.1-1.8-2.3-3.5-3.5c1.3-0.3,2.7-0.8,4.2-1.5c1.5-0.7,2.6-1.4,3.4-2.2c1.9,1.6,3.2,3.2,3.9,5
			s1,3.8,1,6.1c0,2.4-0.6,4.6-1.7,6.3c-1.1,1.8-2.6,3.3-4.4,4.6c-1.8,1.3-3.7,2.4-5.9,3.4c-2.1,1-4.2,1.8-6.2,2.6
			c-2-0.7-4.1-1.5-6.2-2.4c-2.2-1-4.1-2.1-5.8-3.4c-1.7-1.3-3.1-2.9-4.3-4.7c-1.1-1.8-1.7-3.9-1.7-6.4c0-2.2,0.5-4.3,1.4-6.3
			c0.9-2,2.2-3.7,3.9-5.2c1.7-1.5,3.6-2.6,5.7-3.5c2.2-0.9,4.5-1.3,7-1.3c1.4,0,2.7-0.2,3.9-0.7c1.2-0.4,2.2-1.1,3.1-1.9
			s1.6-1.7,2.1-2.8C291.1,636.4,291.3,635.2,291.3,633.9z"/>
		<path id="XMLID_40_" class="st0" d="M337.5,568.7l2.7-1v4.8c0,0.4,0.2,0.7,0.6,1c0.7,0.2,1.2,0.2,1.6,0c0.5-0.3,0.9-0.7,1.2-1.1
			c0.3-0.4,0.4-0.8,0.4-1.2v-4.8l2.8-0.9v4.7c0,1,0.6,1.4,1.8,1.1c0.5-0.2,1-0.6,1.3-1c0.4-0.4,0.5-0.9,0.5-1.3v-4.7l2.7-1.1v5.4
			c0,1-0.3,2-0.8,2.9c-0.5,0.9-1.2,1.7-1.9,2.3c-0.8,0.6-1.6,1-2.5,1.1c-0.9,0.1-1.8-0.1-2.6-0.6c-0.3,0.7-0.9,1.3-1.7,1.7
			c-0.8,0.4-1.7,0.7-2.5,0.8c-0.9,0.1-1.6-0.1-2.3-0.5c-0.7-0.4-1.1-1.2-1.1-2.2V568.7z"/>
		<path id="XMLID_42_" class="st0" d="M355.2,568.5v0.3l-15,5.2c-0.3,0.1-0.6,0.2-0.8,0.2c-0.2,0-0.5,0-0.7,0c-0.5,0-0.9,0-1-0.1
			l-2.2-0.9V573l15-5.2c0.6-0.2,1.2-0.3,1.7-0.3c0.6,0,0.9,0,1,0.1L355.2,568.5z"/>
		<path id="XMLID_44_" class="st0" d="M313.5,640.8v-12.6c0-0.7,0-1.5-0.1-2.3c-0.1-0.8-0.3-1.6-0.7-2.3c-0.4-0.7-1-1.3-1.7-1.7
			c-0.7-0.4-1.7-0.7-3-0.7c0.5-0.9,1-1.6,1.6-2.1c0.5-0.4,1.1-0.8,1.8-1.1c0.7-0.3,1.8-0.5,3.2-0.6c0.1-1,0.5-1.9,1.1-2.7
			c0.6-0.8,1.3-1.5,1.9-2.1c0.2-0.2,0.5-0.4,0.8-0.6c0.3-0.2,0.7-0.5,1.1-0.8s0.7-0.5,1-0.7c0.3-0.2,0.5-0.3,0.5-0.4h0.6v13.2
			c3-2,6.6-3,10.7-3h26.1c3.8,0,7.3-0.5,10.6-1.4c3.3-0.9,6-2.3,8.1-4.3h1v23.5c0,8.1-4.5,12.1-13.5,12.1h-57.4
			c-1.9,0-3.3-0.4-4.3-1.1c-0.9-0.7-1.4-1.6-1.4-2.6c0-0.9,0.5-1.7,1.4-2.5c0.9-0.8,2.4-1.2,4.3-1.2h57.3c3.6,0,5.5-1.6,5.5-4.9V626
			c-1.4,0.6-3,1-5,1.3c-1.9,0.2-4.1,0.4-6.7,0.4h-26c-3.4,0-6.1,0.8-8,2.3c-1.9,1.6-2.8,3.9-2.8,7.1v3.9H313.5z M309.8,662.7
			c1.1-1.4,1.9-3,2.4-5c0.5-1.9,0.7-3.8,0.7-5.6h8.2c0,1.3-0.2,2.5-0.7,3.8c-0.5,1.3-1.1,2.4-1.9,3.5c-0.8,1.1-1.8,2-2.8,2.9
			c-1.1,0.9-2.2,1.5-3.4,2L309.8,662.7z M364.7,650.2v-7.3h25.1c1.9,0,3.2,0.4,4.1,1.2c0.9,0.8,1.3,1.6,1.3,2.5c0,1-0.4,1.8-1.3,2.6
			c-0.9,0.7-2.3,1.1-4.1,1.1H364.7z"/>
		<path id="XMLID_48_" class="st0" d="M389.8,642.8v-43.3c0-0.7,0-1.5-0.1-2.3c-0.1-0.8-0.3-1.6-0.7-2.3c-0.4-0.7-1-1.3-1.7-1.7
			c-0.7-0.4-1.7-0.7-3-0.7c0.5-0.9,1-1.6,1.6-2.1c0.5-0.4,1.1-0.8,1.8-1.1c0.7-0.3,1.8-0.5,3.2-0.6c0.1-1,0.5-1.9,1.1-2.7
			c0.6-0.8,1.3-1.5,1.9-2.1c0.2-0.2,0.5-0.4,0.8-0.6c0.3-0.2,0.7-0.5,1.1-0.8s0.7-0.5,1-0.7c0.3-0.2,0.5-0.3,0.5-0.4h0.6v68.8h-14.4
			c-1.9,0-3.2-0.4-4-1.1c-0.7-0.7-1.1-1.6-1.1-2.6c0-0.9,0.4-1.7,1.1-2.5c0.7-0.8,2.1-1.2,4-1.2H389.8z"/>
		<path id="XMLID_50_" class="st0" d="M423.3,573.1c0,1.7-0.5,3-1.5,4c-1,1-2.2,1.5-3.6,1.5h-14.4c-1.3,0-1.9,1.4-1.9,4.2h-0.7
			c-1.1-1.6-1.7-3-1.7-4.2c0-2.3,1.4-3.5,4.3-3.5h1.3c5.4-4.9,9.7-7.3,12.7-7.3C421.4,567.9,423.3,569.6,423.3,573.1z M407.9,638.1
			v-38.5c0-0.7,0-1.5-0.1-2.3c-0.1-0.8-0.3-1.6-0.7-2.3c-0.4-0.7-1-1.3-1.7-1.7c-0.7-0.4-1.7-0.7-3-0.7c0.5-0.9,1-1.6,1.6-2.1
			c0.5-0.4,1.1-0.8,1.8-1.1c0.7-0.3,1.8-0.5,3.2-0.6c0.1-1,0.5-1.9,1.1-2.7c0.6-0.8,1.3-1.5,1.9-2.1c0.2-0.2,0.5-0.4,0.8-0.6
			c0.3-0.2,0.7-0.5,1.1-0.8s0.7-0.5,1-0.7c0.3-0.2,0.5-0.3,0.5-0.4h0.6v56.7c0,4.8-0.2,8.9-0.7,12.1s-1.3,6.1-2.3,8.4
			c-1.1,2.4-2.4,4.5-3.9,6.3c-1.6,1.9-3.4,3.8-5.4,5.8l-1.7-1.4c1.3-2.6,2.3-5,3-7.2c0.8-2.2,1.4-4.5,1.8-6.8
			c0.4-2.3,0.7-4.9,0.9-7.6C407.9,645,407.9,641.8,407.9,638.1z M419.3,573.2c0-1.1-0.7-1.6-2.2-1.6c-1.4,0-3.9,1.2-7.6,3.6h5.3
			C417.8,575.2,419.3,574.5,419.3,573.2z"/>
	</g>
	<g id="XMLID_100_">
		<path id="XMLID_8_" class="st0" d="M447.8,366.1c0,0,0.1,5.3,0.3,14.5c0.1,9.2,0.4,22.4,0.5,38.2c0.1,7.9,0.2,16.4,0.2,25.5
			c0.1,9,0.1,18.6,0.2,28.5c0,9.9,0.1,20.1,0.1,30.4c0,10.4,0,20.9,0,31.4c0,10.5,0,21.1,0,31.4c0,10.4-0.1,20.6-0.1,30.4
			c-0.1,19.7-0.3,38.2-0.5,53.9c-0.1,7.9-0.2,15.1-0.3,21.5c-0.1,6.4-0.2,12-0.3,16.6c-0.2,9.2-0.3,14.5-0.3,14.5s-0.1-5.3-0.3-14.5
			c-0.1-4.6-0.2-10.2-0.3-16.6c-0.1-6.4-0.2-13.6-0.3-21.5c-0.1-15.8-0.4-34.2-0.5-53.9c0-9.9-0.1-20.1-0.1-30.4
			c0-10.4,0-20.9,0-31.4c0-10.5,0-21.1,0-31.4c0-10.4,0.1-20.6,0.1-30.4c0.1-9.9,0.1-19.4,0.2-28.5c0.1-9,0.2-17.6,0.2-25.5
			c0.1-15.8,0.4-28.9,0.5-38.2C447.7,371.3,447.8,366.1,447.8,366.1z"/>
	</g>
</g>
</svg>
