<?xml version="1.0" encoding="UTF-8"?>
<!DOCTYPE svg PUBLIC "-//W3C//DTD SVG 1.1//EN" "http://www.w3.org/Graphics/SVG/1.1/DTD/svg11.dtd">
<!-- Creator: CorelDRAW 2017 -->
<svg xmlns="http://www.w3.org/2000/svg" xml:space="preserve" width="1000px" height="1694px" version="1.1" style="shape-rendering:geometricPrecision; text-rendering:geometricPrecision; image-rendering:optimizeQuality; fill-rule:evenodd; clip-rule:evenodd"
viewBox="0 0 10000 16940"
 xmlns:xlink="http://www.w3.org/1999/xlink">
 <defs>
  <style type="text/css">
   <![CDATA[
    .fil0 {fill:black}
   ]]>
  </style>
 </defs>
 <g id="Слой_x0020_1">
  <metadata id="CorelCorpID_0Corel-Layer"/>
  <path class="fil0" d="M2355 439.7c-18,-61.1 -34.5,-134.8 -12.2,-184.2 22.4,-49.4 83.6,-74.6 143.3,-98.2 59.8,-23.6 118.1,-45.6 195.9,-62.6 77.8,-17.1 175.2,-29.1 267.9,-35.8 21.1,-1.5 42,-2.7 62.8,-3.5 66.2,5.2 132.4,10.4 198,24.9 65.6,14.4 130.6,38 182.5,62.2 52,24.1 90.8,48.8 113.4,81.4 22.5,32.7 28.9,73.3 32,93.6 3.2,20.3 3.2,20.3 3.3,36.6 0.1,16.4 0.4,49 5.7,34.9 5.3,-14 15.6,-74.8 19.4,-113.3 3.8,-38.5 1.1,-54.8 -1.8,-65.1 -2.8,-10.2 -5.9,-14.4 -16.2,-26.3 -10.3,-11.9 -27.8,-31.5 -60.9,-52.1 -30.8,-19.1 -75.1,-38.9 -109.3,-53.5 -2.5,-1.1 -5,-2.1 -7.4,-3.1 -35,-14.8 -56.4,-22.8 -80.3,-30.3 -24,-7.5 -50.6,-14.5 -84.1,-21.1 -33.6,-6.6 -74.2,-12.9 -104.1,-16.8 -29.8,-3.9 -48.9,-5.3 -68.1,-6.8 -34,-1.9 -68.2,-2.3 -102,-1.2 -134.1,4.5 -303.5,17.3 -455.4,51.3 -151.9,34 -286.3,89.4 -379.1,138.5 -92.9,49.2 -144.4,92.2 -170.1,113.7 -25.7,21.5 -25.7,21.5 -5.9,116.2 19.8,94.7 59.4,284.2 79.1,378.9 4.7,22.3 8.2,39.3 11.4,52 0.2,0.7 0.4,1.5 0.6,2.3 0,0.1 0.1,0.3 0.1,0.4l1.8 -2.1c-0.6,0.8 -1.2,1.5 -1.8,2.3 -0.1,0.1 -0.2,0.3 -0.3,0.4 -50.6,65.8 -58.4,218.3 -25.5,356.7 3.7,38.9 13.4,73.3 28.5,131.9 12.3,47.9 28.3,112 53.2,178.2 -0.4,128.4 -0.7,256.9 -3.2,381.7 -2.4,124.8 -7,246.1 2.1,338.6 9.1,92.5 31.8,156.1 68.2,223.6 36.4,67.4 86.4,138.7 159.7,211.8 21.3,21.2 44.5,42.6 67.9,63.2 0.8,0.6 1.5,1.3 2.3,2 1.7,1.2 3.5,2.4 5.2,3.6 0.4,0.7 0.7,1.2 1,1.8 54.6,47.4 109.3,89.9 141.9,115.2 45.8,35.6 48.2,37.5 57.5,40.5 0.5,0.1 1,0.3 1.6,0.5 10.8,3.4 32.4,10.1 8.7,-16.8 -23.7,-26.9 -92.9,-87.5 -158.6,-176.6 -65.8,-89 -128.2,-206.5 -164.7,-332.2 -36.5,-125.6 -47.1,-259.4 -33.6,-363.6 8.7,-67.5 27.5,-122.6 49.9,-173.4 7.2,8.1 14.5,16.2 21.9,24.3 71.6,78.3 152.1,157 240.1,223.8 178.5,154.6 389,266.6 623.7,109 166.5,-112 393.3,-755.1 396.7,-920.1 3.3,-157.8 -7.6,-178.2 13.1,-351.5 2.8,-23.3 7.1,-122.8 0.7,-213.1 -0.5,-7.6 -1.1,-15 -1.8,-22.3 0.1,0.1 0.3,0.1 0.4,0.2 4.7,3.1 9.2,6 13.4,8.6 0,-0.4 0,-0.7 0,-1.1 0,0.4 0.1,0.8 0.1,1.1 9.1,5.7 16.5,10.1 21.4,12.4 17.7,8.5 -0.1,-11.6 -36.1,-39.8 -36,-28.2 -90.2,-64.6 -141.1,-93 -51,-28.4 -98.8,-48.9 -154.1,-63.1 -55.4,-14.2 -118.3,-22.1 -169.1,-26.1 -50.8,-4 -89.6,-4.3 -156.6,2.3 -67,6.6 -162.4,19.9 -257.8,33.3 -77,13.6 -147.5,25.4 -197.8,25.1 -100.1,-0.6 -119.5,-49.2 -137.4,-110.3zm401 119.8c56.4,-8 119.1,-14.8 195.3,-17.9 76.2,-3.2 165.9,-2.9 242.8,5.5 77,8.3 141.1,24.6 186.7,39.6 45.6,15 72.6,28.6 112.8,53.9 17,10.7 36.2,23.4 54.2,35.2 4.3,93.8 -6.6,210.3 -12.3,244.2 -29.6,177 -18.7,194.3 -27.4,356.1 -5,93 -124.2,435.1 -242.9,660.2 -23.1,40.9 -50,80 -84.6,112.6 -50.4,47.3 -117.3,80.9 -195.8,86.8 -78.5,5.9 -168.6,-15.9 -264.1,-87.8 -95.5,-71.8 -196.4,-193.7 -275.6,-320.1 -79.1,-126.5 -136.4,-257.4 -165.5,-408.9 -29.1,-151.4 -30,-323.3 -16.8,-435.6 11.4,-97.5 33.5,-150.1 48.6,-187 21.6,-18.1 43.2,-36.3 91.3,-54.6 48,-18.3 122.4,-36.8 196.8,-55.2 50,-9.5 100.1,-18.9 156.5,-27z"/>
  <path class="fil0" d="M3349.2 2359.5c-19.3,-8.1 -36.9,-15.3 -53,-21.7 -22.1,-8.5 -44.3,-17 -80.4,-27 -36.1,-10 -86.2,-21.6 -116.6,-12.5 -30.5,9 -41.3,38.7 -52,68.4 -2.9,24.3 -6,50.1 -10.3,77.1 -3.5,22 -7.8,44.8 -13.2,68.3 -25.4,109.7 -76.3,233.4 -110.9,302.5 -34.5,69.1 -52.7,83.7 -33.6,63.7 6.1,-6.5 16.2,-16.6 28.5,-29.8 11,-12.6 22,-25.1 32.8,-37.6 38.9,-44.6 76,-88.3 105.6,-127.6 37.9,-50.3 63.2,-93.5 89.4,-121 26.1,-27.5 53.1,-39.2 90.6,-44.7 37.5,-5.5 85.6,-4.7 136.4,2.7 50.8,7.3 104.2,21.4 169.6,46.4 65.5,25.1 142.9,61.1 220.3,97.2 70.5,42 139.1,88.2 197.3,135.5 144.2,117.2 225.3,241.4 299.8,551.9 74.6,310.6 142.6,807.4 169.6,1258 27.1,450.6 13.1,854.9 17.8,1222.2 3,232.1 13.4,449.5 21.5,631.3 -5.3,168.3 -10.6,336.6 -18.3,442.2 -7.7,105.5 -17.7,148.2 -26.8,178.3 -9.2,30.2 -17.4,47.6 -49.6,61 -32.2,13.4 -88.3,22.7 -126.9,29.2 -38.6,6.4 -59.6,9.9 -72.5,12.2 -12.9,2.2 -17.6,3 -22.3,7 -4.6,4 -9.1,11.2 18.7,14.9 27.8,3.7 88,3.9 117.9,14.8 18.5,6.8 25.4,17.6 28,30 1.6,7.6 1.5,15.9 1.4,24.1 4.2,54.5 17.1,134.1 35,237.1 23.9,137.5 56.8,316.8 61.5,445.6 4.8,128.8 -18.6,207.3 -53.8,263.2 -35.1,55.9 -82,89.3 -128.6,101.9 -14.5,3.9 -29.1,5.8 -43.2,5.8 -27.9,0 -53.8,-7.2 -74.5,-20.2 -2.8,-0.6 -4.9,-0.4 -6.1,1.1 -3.5,4.1 -0.6,18.3 13.1,31 13.7,12.7 38.1,23.8 62.7,34.9 33.5,2.6 67,5.1 111,-6.3 44.1,-11.5 98.6,-36.9 135.5,-83.8 36.8,-46.8 55.9,-115 57.3,-211 1.5,-95.9 -14.8,-219.5 -31,-343.1 -8.4,-78.8 -17.5,-160.8 -23.3,-233 -10.4,-129.7 -10.4,-227.6 -10.4,-279.4 0,-13.3 0,-23.5 -0.1,-31.4 41.3,-21.6 54.1,-60.8 68.8,-131.5 17.5,-84.4 37.9,-213.7 44.2,-383 6.3,-169.3 -1.4,-378.5 3.7,-712.3 5.2,-333.8 23.2,-792.2 4.4,-1218.4 -18.8,-426.3 -74.4,-820.5 -118.1,-1126.1 -43.6,-305.6 -75.3,-522.6 -169,-680.9 -93.6,-158.4 -249.3,-257.9 -420.5,-350.1 -171.3,-92.2 -358,-177 -477.4,-227.1z"/>
  <path class="fil0" d="M2067.9 2483.4c11.6,-19.2 10.2,-56.2 -2.2,-99.2 -12.4,-43 -35.7,-92 -77.8,-109.9 -42,-17.9 -102.8,-4.7 -163.7,8.5 -59.5,14 -127.6,31.2 -202,52.3 -138.1,39.2 -298,91.7 -394.7,128.5 -96.7,36.9 -130.3,58.1 -185,84.7 -54.8,26.6 -130.6,58.5 -211.5,109.7 -81,51 -167,121.3 -239.4,208.3 -72.4,87.1 -131.1,191 -181.1,346.7 -50,155.6 -91.3,363.1 -117,594.5 -25.7,231.4 -35.9,486.7 -42.3,843.4 -6.3,356.6 -8.9,814.5 7.9,1238 16.8,423.5 53.1,812.4 86.8,1070.6 33.8,258.1 65.1,385.3 80.7,449 15.7,63.6 15.7,63.6 -4.2,-54.2 -19.9,-117.8 -59.6,-353.5 -84.5,-728.8 -24.8,-375.3 -34.7,-890.3 -28.1,-1362.3 6.5,-472 29.5,-901 78,-1262.7 48.5,-361.7 122.4,-656 214.2,-853.4 91.8,-197.3 201.4,-297.7 367,-389.4 52.4,-28.9 110.4,-57 171.7,-83.4 109.8,-38 219.6,-76 330.9,-103.4 111.3,-27.5 224.1,-44.4 323.7,-57.2 13.7,-1.7 27.1,-3.4 40.1,-5.1 50.3,-1.7 100.1,-2.4 136.8,-3.2 59.5,-1.3 84.1,-2.8 95.7,-22z"/>
  <path class="fil0" d="M1385.9 4575.9c45.9,-232.4 84.1,-475.2 115.9,-663.1 31.8,-187.8 57.3,-320.6 83.6,-407.9 26.4,-87.3 53.7,-129.2 67.3,-150.1 13.7,-20.9 13.7,-20.9 -8.7,-13.8 -22.3,7 -67.1,21.1 -100.9,76.1 -33.8,54.9 -56.6,150.7 -87.2,279.9 -30.5,129.1 -68.7,291.6 -119.3,506.4 -50.5,214.7 -113.3,481.6 -160.4,671.1 -47.1,189.4 -78.6,301.2 -90.2,509 -11.6,207.9 -3.3,511.6 10.4,815.4 13.6,303.8 32.6,607.6 47.5,806.8 15,199.2 25.9,293.8 21.3,339.3 -4.5,45.4 -24.5,41.8 -81.8,40 -57.3,-1.8 -151.9,-1.8 -266.3,9.8 -114.3,11.7 -248.4,35 -333.9,55 -85.5,20.1 -122.4,36.7 -112.5,43.4 9.9,6.6 66.7,3.1 155.7,-4.6 28.4,-2.5 60.1,-5.4 94.1,-8.4 -22,90.7 -44.1,181.4 -62.9,250.8 -4.3,16 -8.5,31 -12.6,45.1 -13.4,47 -25.4,85.7 -37.5,130.4 -2.5,9.2 -5,18.7 -7.5,28.5 -13,51.7 -24.8,110.8 -28,178.2 -3.9,80.2 4.3,172 15.7,250.7 11.3,78.7 25.9,144.2 47.6,187.1 21.6,43 50.4,63.4 78.3,82.6 27.9,19.1 54.8,36.9 93.1,39 38.4,2.1 88.2,-11.7 138.1,-49 49.9,-37.3 99.9,-98.3 133.1,-164.2 33.2,-65.9 49.6,-136.9 68.2,-156.4 18.7,-19.6 39.6,12.2 59.1,29.4 19.5,17.1 37.6,19.5 52.8,20.8 0.2,0 0.3,0 0.4,0 15.1,1.3 27.6,1.3 38.5,-31 2.5,-7.4 4.9,-16.4 7,-26.9 7.4,-35.8 11.8,-88.1 6.5,-146.1 -6.9,-75 -30.1,-159.5 -48.5,-231.8 -1.9,-7.4 -3.7,-14.7 -5.5,-21.9 -15.7,-62.6 -27.9,-115.5 -40.4,-160.6 -3.4,-12.4 -6.9,-24.3 -10.3,-35.6 -11.6,-27.8 -23.3,-55.7 -32.3,-96.3 -3.9,-17.6 -7.3,-37.7 -10.3,-59.3 -2,-6.8 -3.7,-10.7 -5.4,-10.3 -4.8,1 -9,38.4 2,101.8 10.9,63.4 37,152.9 57.4,242.5 20.4,89.6 35.2,179.4 39.6,247.6 4.5,68.2 -1.3,114.7 -17.3,127.6 -16,12.9 -42.1,-7.9 -62.5,-22.8 -20.4,-14.9 -35,-23.9 -50.2,-26.5 -15.2,-2.6 -31.1,1.2 -53.8,42.6 -22.7,41.3 -52.3,120.2 -90.3,183.8 -37.9,63.5 -84.3,111.7 -119.3,135.4 -35.1,23.6 -58.7,22.7 -80.2,14.9 -21.5,-7.8 -40.9,-22.4 -61.4,-82.9 -20.4,-60.5 -42,-166.8 -44.9,-269.5 -0.2,-8.3 -0.3,-16.6 -0.3,-24.8 0,-15 0.4,-29.9 1.2,-44.8 0,0 0,-0.1 0,-0.1 4.1,-77.8 18.4,-152.9 39.8,-223.8 27.7,-91.9 67.4,-176.6 91.8,-257.1 21.6,-71.4 31.2,-139.5 39.4,-207.2 36.9,-2.4 75,-4.6 113.5,-6 37.8,-1.3 76,-2 112.7,-2.3 40.5,0.1 81,0.2 121.4,0.3 34.5,0.4 64.2,0.9 86.4,1.1 64.9,0.7 64.8,-0.8 61,-104.7 -3.8,-103.8 -11.4,-310 -16.5,-599.5 -5,-289.6 -7.5,-662.6 -6.2,-927.6 1.3,-265 6.4,-422.1 35.8,-611.6 29.4,-189.5 83.2,-411.5 129.1,-643.9z"/>
  <path class="fil0" d="M3830.7 4289.4c18.9,321 49.8,846.7 83.4,1713.9 20.2,521.5 41.3,1166.5 53.2,1815.7 -56.1,1269.9 -112.3,2539.9 -130.7,3339 -18.3,799 1.1,1127.3 14.6,1242.3 13.5,115 21,16.9 38.5,-254.8 17.5,-271.6 44.9,-716.7 72.6,-1231.8 27.6,-515.2 55.6,-1100.5 78.4,-1640.1 22.8,-539.6 40.6,-1033.5 58.4,-1527.4 8.9,-520.4 -6.2,-833 -9.5,-1167.5 -3.3,-334.6 5.1,-691 -45.6,-1237.5 -50.6,-546.5 -160.5,-1283 -213.2,-1656.6 -35.2,-250.2 -44.9,-337.6 -46.7,-355 0.3,3.1 0.7,8.1 1.1,14.2 2.5,43.5 3.2,141.2 5,215.5 1.9,74.3 4.9,125.2 9.8,208.9 4.9,83.7 11.8,200.1 30.7,521.2z"/>
  <path class="fil0" d="M3511.5 12669.1c-365.6,17.2 -984.1,62.7 -1331.6,90 -347.4,27.3 -423.8,36.4 -613,56.4 -189.2,20 -491.2,50.9 -639.2,-44.5 -148,-95.5 -142,-317.3 -146.5,-552.9 -4.6,-235.6 -19.7,-484.9 -27.2,-857.8 -7.5,-373 -7.5,-869.6 -7.1,-1249 0.4,-379.5 1.3,-641.8 6.8,-864.2 4,-159 10.4,-297.6 14.6,-387.6 1.1,-23.5 2.2,-47.1 -4.1,-64.5 -6.3,-17.4 -20,-28.6 -33.7,-39.8 -28.6,-12.3 -70.6,-41.4 -98.2,97.2 -31.5,158.4 -44.4,535.6 -53.2,809.6 -8.9,274 -13.7,444.9 -21.5,806.8 -7.8,362 -18.6,915 -17.6,1384.4 0.9,469.3 13.7,855 34.6,1052.3 20.9,197.4 50,206.5 106.4,203.8 56.4,-2.7 140.1,-17.3 304.8,-42.6 51.9,-7.9 111.7,-16.9 176.9,-26.7 8,101 19.7,280.8 18.7,378.7 -1.2,124 -16.7,230.5 -12.5,308.5 4.1,78.1 28,127.6 78.2,183.3 50.3,55.7 126.9,117.6 196.6,166.7 69.8,49.1 132.7,85.5 199.3,110.4 66.5,24.8 136.8,38.2 215.2,38.7 78.5,0.5 165.1,-11.9 242,-34.5 76.8,-22.6 143.7,-55.3 179.9,-80 36.3,-24.7 41.9,-41.4 40.2,-67.3 -1.6,-25.9 -10.3,-61 -52.3,-115.7 -42,-54.7 -117.2,-129 -204.9,-240.2 -29.8,-37.7 -61,-79.6 -91.7,-123 13.1,-3.4 31.9,-8 58.6,-14.4 30.4,-7.2 69,-16.4 113.1,-26.8 126.5,-29.6 253.1,-59.2 331.7,-72.3 78.6,-13.2 109.1,-9.9 134.8,-3.5 25.6,6.3 46.3,15.7 66.9,25.1 21.9,22.5 52.5,42.6 94,60.3 72.7,31.1 179,55 275.6,87.7 96.6,32.8 183.5,74.5 262.4,107.2 78.8,32.7 149.6,56.4 224.3,66.6 74.7,10.2 153.3,6.9 229.7,-5.2 76.4,-12.2 150.5,-33.2 207,-56.2 56.4,-23 95.2,-48.1 125.6,-74.7 30.4,-26.5 52.3,-54.7 58.2,-81.7 5.9,-27 -4.3,-53 -26.6,-87.3 -22.2,-34.4 -56.6,-77.1 -130.6,-118.6 -74.1,-41.6 -187.8,-82 -285.8,-128.9 -98,-46.9 -180.3,-100.3 -240.7,-165.8 -44.4,-48.1 -77,-102.8 -102.1,-153.9 -16.7,-32 -33.5,-63.9 -41.9,-79.9 -8.3,-16 -8.3,-16 -9.1,-8.7 -0.7,7.3 -2.2,22 3.1,45.7 5.3,23.6 17.3,56.3 29.4,89.1 21,45 46,90.1 74.5,128.7 64.7,87.4 147.4,141.1 233.4,181.7 86,40.5 175.2,68 242,97.9 66.8,29.8 111.3,62 137.6,94.7 26.4,32.6 34.6,65.7 31.2,92.8 -3.5,27.2 -18.8,48.3 -60.8,70.5 -42,22.2 -110.8,45.4 -186,63 -75.1,17.6 -156.6,29.6 -225.2,24.8 -68.6,-4.9 -124.2,-26.6 -191.3,-60.3 -67.1,-33.6 -145.5,-79.2 -231,-111.5 -85.4,-32.3 -177.7,-51.5 -249.4,-75.9 -71.7,-24.5 -122.7,-54.2 -152.3,-82 -29.5,-27.7 -37.6,-53.4 -34.9,-84.5 2.8,-31 16.4,-67.4 29.2,-121.5 12.7,-54.1 24.5,-126 36.6,-187.4 12,-61.4 24.2,-112.3 29.9,-150.6 2.8,-18.9 4,-34.7 4.1,-47.9 179.1,-21.1 356.4,-40.8 505.5,-57.3 271.1,-29.9 449.1,-48.9 560.4,-58.9 111.2,-10 155.7,-11 121.6,-17 -34.2,-6 -147,-16.9 -512.6,0.4zm-1103.5 185.7c85.5,-11.3 176.4,-22.7 268.9,-33.9 2.9,36.2 2.3,88.5 -4.4,154.8 -8.3,81.9 -26,185.1 -36.4,263.8 -2.5,19.1 -4.6,36.7 -6,53.2 -27,25.5 -54.1,51 -171.6,85.3 -117.5,34.3 -325.5,77.4 -533.5,120.5 -43,-63.6 -83,-127.2 -114.4,-182.7 -13.8,-24.4 -25.9,-47.2 -36.7,-68.6 -6.5,-13 -12.4,-25.5 -18,-37.5 -4.3,-8.2 -8.3,-14.4 -11.5,-17 -7.3,-6.1 -10.8,6 -6.2,29.9 4.5,23.8 17,59.3 29.5,94.8 28.5,69.1 64,135.1 104.8,201 50.3,81.2 108.6,162.3 167.4,232.7 58.8,70.5 118.2,130.3 159,174.9 40.8,44.6 62.9,74 66.1,100.9 3.3,26.8 -12.4,51 -68.6,75.6 -56.1,24.5 -152.6,49.3 -253.3,52.4 -100.6,3.2 -205.3,-15.2 -310,-64.4 -104.7,-49.1 -209.4,-129.1 -273.2,-197.6 -63.9,-68.6 -87,-125.7 -91.9,-210.2 -5,-84.5 8.2,-196.3 14.8,-289 6.5,-92.7 6.5,-166.3 4.6,-226.6 -0.9,-30.3 -3.7,-97.8 -6,-144.9 112.5,-16.8 234.4,-35.1 354.8,-53.6 239.6,-36.9 473,-74.6 771.8,-113.8z"/>
  <path class="fil0" d="M4066.3 12975.1c-133.5,36.1 -271.6,74.9 -353.7,99.1 -11.2,3.3 -21.6,6.4 -31.1,9.2 -31.8,9.4 -63.5,18.8 -79.2,28.4 -15.7,9.6 -15.4,19.4 -4.3,29.2 11.2,9.8 33.2,19.7 92.9,12 59.7,-7.6 157.2,-32.7 262.6,-61.3 105.3,-28.7 218.7,-60.9 316.7,-68.4 98.1,-7.4 181,10 265.4,39.2 54.1,18.7 108.9,42.2 164,67.5 0,0 0.1,0.1 0.2,0.1 30.5,14 61.1,28.6 91.7,43.1 383.2,179.4 1002.5,457.9 1781.6,773.4 871.4,352.9 1942.5,752.1 2581,965.9 129,43.1 240.3,78.8 333.7,107.1 -393,134.1 -1043.1,390.2 -1643.7,614.4 -616,230 -1180,426.4 -1718.4,626.5 -538.5,200.1 -1084.6,416.5 -1306.1,505.7 -221.5,89.3 -214.5,88.4 -58.2,41.9 156.3,-46.6 574.8,-180.1 1036.9,-343.9 462,-163.7 1004.1,-371 1462.5,-534.8 458.4,-163.7 833.1,-283.7 1222.4,-422 359,-127.5 730.3,-270.4 1002.8,-376 101.5,-39.8 203.1,-79.5 304.6,-119.2 125.2,-50.4 194.5,-82.5 207.3,-102.2 17.9,-27.6 -75,-31 -396.4,72 -329.4,-132.4 -951,-355.2 -1502.9,-557.4 -639.6,-234.2 -1185.6,-440.8 -1822.4,-696.8 -193.2,-77.7 -394.8,-160 -591.2,-240.6 -319.1,-155.4 -638.2,-310.8 -858,-409.2 -219.8,-98.4 -340.3,-139.8 -450.6,-147.4 -110.2,-7.7 -210.2,18.4 -310.1,44.5z"/>
  <path class="fil0" d="M3104.6 15803.7c-194.1,-115.2 -333.5,-203.2 -574.5,-347.2 -241.1,-144 -583.7,-344.1 -885.3,-526 -301.7,-181.9 -562.4,-345.6 -809.5,-506.3 -55.6,-36.2 -110.6,-72.2 -163.6,-107.2 -107.3,-78.7 -214.7,-157.3 -285.2,-213 -70.5,-55.7 -104.2,-88.4 -115.2,-117.4 -11,-29 0.6,-54.1 38.8,-72 35,-16.4 92.4,-26.6 151.7,-36.4 177.4,-29 415.9,-68.5 549.3,-95.2 71.1,-14.2 105.5,-21 123.7,-24.5 -1.8,-13.8 -3.5,-27.6 -3.2,-43.2 0.3,-15.5 2.7,-32.7 5,-50 -65.8,13.3 -123.2,23.9 -272.9,54.9 -186.9,38.6 -530.2,106.8 -678.7,135.6 -18.7,3.6 -35.8,6.9 -51.4,9.9 -54.1,13.4 -108.2,26.7 -126.3,44.3 -18.1,17.5 -0.1,39.2 27.7,63.4 27.9,24.3 65.6,51 84.9,64.7 19.2,13.7 20,14.2 64.2,44.5 44,30.3 131.2,90.2 218.5,150.1 97.6,66.5 203.2,137.8 303.8,205.2 224.4,150 424.5,280.4 694.3,456.2 269.8,175.9 609.4,397.2 889.8,564 280.5,166.7 501.8,278.9 671.6,368.3 169.8,89.5 288,156.2 447.2,259.2 24.1,15.7 49.2,32.1 75,49.3 144.3,95.9 311.1,213 461.6,323.6 2.3,1.8 4.7,3.5 7,5.2 4.5,3.2 9,6.3 13.6,9.5 174.4,122.6 369.4,259.8 504.4,341.3 135,81.5 210,107.2 246.7,119.6 27.3,9.1 33.5,10.9 15.3,-3.4 -79,-57.7 -170,-125 -264.5,-196.6 -12.4,-9.4 -24.9,-18.9 -37.4,-28.5 -204.7,-156.1 -419.9,-328.9 -651.8,-486.6 -232,-157.6 -480.6,-300.1 -674.6,-415.3z"/>
 </g>
</svg>
